# AST/ASF file generated using VICON BodyLanguage
# -----------------------------------------------
:version 1.10
:name VICON
:units
  mass 1.0
  length 0.45
  angle deg
:documentation
   .ast/.asf automatically generated from VICON data using
   VICON BodyBuilder and BodyLanguage model FoxedUp or BRILLIANT.MOD
:root
   order TX TY TZ RX RY RZ
   axis XYZ
   position 0 0 0  
   orientation 0 -0 0 
:bonedata
  begin
     id 1 
     name lhipjoint
     direction 0.515797 -0.759363 0.396637 
     length 2.47888 
     axis 0 -0 0  XYZ
  end
  begin
     id 2 
     name lfemur
     direction 0.34202 -0.939693 0  
     length 6.81885  
     axis 0 -0 20  XYZ
    dof rx ry rz
    limits (-160.0 20.0)
           (-70.0 70.0)
           (-60.0 70.0)
  end
  begin
     id 3 
     name ltibia
     direction 0.342037 -0.939687 0   
     length 7.89258   
     axis 0 -0 20   XYZ
    dof rx
    limits (-10.0 170.0)
  end
  begin
     id 4 
     name lfoot
     direction 0.173497 -0.476678 0.861787   
     length 2.51543   
     axis -90 -1.13533e-015 20   XYZ
    dof rx rz
    limits (-45.0 90.0)
           (-70.0 20.0)
  end
  begin
     id 5 
     name ltoes
     direction 1.53564e-011 -4.21897e-011 1   
     length 1.21388   
     axis -90 -1.13533e-015 20   XYZ
    dof rx
    limits (-90.0 20.0)
  end
  begin
     id 6 
     name rhipjoint
     direction -0.489454 -0.772941 0.403729   
     length 2.43534  
     axis 0 -0 0  XYZ 
  end
  begin
     id 7 
     name rfemur
     direction -0.34202 -0.939693 0   
     length 7.10357   
     axis 0 -0 -20   XYZ
    dof rx ry rz
    limits (-160.0 20.0)
           (-70.0 70.0)
           (-70.0 60.0)
  end
  begin
     id 8 
     name rtibia
     direction -0.34202 -0.939693 0   
     length 9.16127   
     axis 0 -0 -20   XYZ
    dof rx
    limits (-10.0 170.0)
 end
 begin
     id 9 
     name rfoot
     direction -0.270974 -0.748671 0.605033   
     length 1.74894  
     axis -90 1.13533e-015 -20   XYZ
    dof rx rz
    limits (-45.0 90.0)
           (-20.0 70.0)
  end
  begin
     id 10 
     name rtoes
     direction -1.53557e-011 -4.21759e-011 1   
     length 0.787585   
     axis -90 1.13533e-015 -20   XYZ
    dof rx
    limits (-90.0 20.0)
  end
  begin
     id 11 
     name lowerback
     direction -0.0140249 0.999561 0.0260968   
     length 2.16963   
     axis 0 -0 0   XYZ
    dof rx ry rz
    limits (-20.0 45.0)
           (-30.0 30.0)
           (-30.0 30.0)
  end
  begin
     id 12 
     name upperback
     direction 0.00860018 0.999959 -0.002711   
     length 2.1726   
     axis 0 -0 0   XYZ
    dof rx ry rz
    limits (-20.0 45.0)
           (-30.0 30.0)
           (-30.0 30.0)
  end
  begin
     id 13 
     name thorax
     direction 0.015211 0.999782 -0.0143191   
     length 2.17061   
     axis 0 -0 0   XYZ
    dof rx ry rz
    limits (-20.0 45.0)
           (-30.0 30.0)
           (-30.0 30.0)
  end
  begin
     id 14 
     name lowerneck
     direction -0.0140143 0.999447 0.030145   
     length 2.26749   
     axis 0 -0 0   XYZ
    dof rx ry rz
    limits (-20.0 45.0)
           (-30.0 30.0)
           (-30.0 30.0)
  end
  begin
     id 15 
     name upperneck
     direction 0.118062 0.961438 -0.248392   
     length 2.22728   
     axis 0 -0 0   XYZ
    dof rx ry rz
    limits (-20.0 45.0)
           (-30.0 30.0)
           (-30.0 30.0)
  end
  begin
     id 16
     name head
     direction 0.0431885 0.9954 -0.085514  
     length 2.28786  
     axis 0 -0 0   XYZ
    dof rx ry rz
    limits (-20.0 45.0)
           (-30.0 30.0)
           (-30.0 30.0)
  end
  begin
     id 17 
     name lclavicle
     direction 0.912126 0.409548 0.0172323  
     length 4.31571  
     axis 0 -0 0   XYZ
    dof ry rz
    limits (-20.0 10.0)
           (0.0 20.0)
  end
  begin
     id 18 
     name lhumerus
     direction 1 -4.48977e-011 1.93091e-027   
     length 5.13658   
     axis 180 -30 -90   XYZ
    dof rx ry rz
    limits (-60.0 90.0)
           (-90.0 90.0)
           (-90.0 90.0)
  end
  begin
     id 19
     name lradius
     direction 1 -4.48916e-011 6.84018e-027   
     length 3.22473   
     axis 180 -30 -90   XYZ
    dof rx
    limits (-10.0 170.0)
  end
  begin
     id 20
     name lwrist
     direction 1 -4.48987e-011 7.01981e-027   
     length 1.61236   
     axis -4.37994e-015 90 90   XYZ
    dof ry
    limits (-180.0 0.0)
 end
  begin
     id 21 
     name lhand
     direction 1 -4.49037e-011 1.40335e-026   
     length 0.936406   
     axis -8.96029e-015 90 90   XYZ
    dof rx rz
    limits (-90.0 90.0)
           (-45.0 45.0)
  end
  begin
     id 22 
     name lfingers
     direction 1 -4.48886e-011 2.8104e-026   
     length 0.754955   
     axis -1.79203e-014 90 90   XYZ
    dof rx
    limits (0.0 90.0)
  end
  begin
     id 23
     name lthumb
     direction 0.707107 -6.34937e-011 0.707107   
     length 1.08397   
     axis -90 45 -4.48555e-014   XYZ
    dof rx rz
    limits (-45.0 45.0)
           (-45.0 45.0)
  end
  begin
     id 24 
     name rclavicle
     direction -0.947962 0.317997 0.0156638   
     length 4.86918  
     axis 0 -0 0   XYZ 
    dof ry rz
    limits (-10.0 20.0)
           (-20.0 0.0)
  end
  begin
     id 25 
     name rhumerus
     direction -1 -4.48951e-011 2.80534e-018  
     length 5.60911   
     axis 180 30 90   XYZ
    dof rx ry rz
    limits (-90.0 60.0)
           (-90.0 90.0)
           (-90.0 90.0)
  end
  begin
     id 26 
     name rradius
     direction -1 -4.4898e-011 2.11315e-027   
     length 3.38704   
     axis 180 30 90   XYZ
    dof rx
    limits (-10.0 170.0)
  end
  begin
     id 27 
     name rwrist
     direction -1 -4.48933e-011 7.02314e-027   
     length 1.69352   
     axis -4.37994e-015 -90 -90   XYZ
    dof ry
    limits (-180.0 0.0)
  end
  begin
     id 28
     name rhand
     direction -1 -4.48937e-011 1.40458e-026   
     length 0.755878   
     axis -8.96029e-015 -90 -90   XYZ
    dof rx rz
    limits (-90.0 90.0)
           (-45.0 45.0)
  end
  begin
     id 29
     name rfingers
     direction -1 -4.4901e-011 2.80737e-026   
     length 0.609409   
     axis -1.79203e-014 -90 -90   XYZ
    dof rx
    limits (0.0 90.0)
  end
  begin
     id 30
     name rthumb
     direction -0.707107 -6.34968e-011 0.707107   
     length 0.874992   
     axis -90 -45 4.48555e-014   XYZ
    dof rx rz
    limits (-45.0 45.0)
           (-45.0 45.0)
  end
:hierarchy
  begin
    root lhipjoint rhipjoint lowerback
    lhipjoint lfemur
    lfemur ltibia
    ltibia lfoot
    lfoot ltoes
    rhipjoint rfemur
    rfemur rtibia
    rtibia rfoot
    rfoot rtoes
    lowerback upperback
    upperback thorax
    thorax lowerneck lclavicle rclavicle
    lowerneck upperneck
    upperneck head
    lclavicle lhumerus
    lhumerus lradius
    lradius lwrist
    lwrist lhand lthumb
    lhand lfingers
    rclavicle rhumerus
    rhumerus rradius
    rradius rwrist
    rwrist rhand rthumb
    rhand rfingers
  end

#!OML:ASF C:\ViconDB\ViconDB\414\Spring2016\041811\Spring2016.ASF
:FULLY-SPECIFIED
:DEGREES
108
root 8.06325 15.4656 2.30834 -161.249 -5.27831 178.304
lowerback 31.6586 1.04788 -2.47117
upperback 3.72307 -0.579728 0.0576399
thorax -12.3001 -0.596387 1.71793
lowerneck -16.7421 -5.74565 -14.3511
upperneck 0.174865 -6.80607 20.3195
head 4.11237 -2.85984 8.23099
rclavicle 1.09332e-015 7.67806e-015
rhumerus -43.7478 -11.9744 -90.842
rradius 57.7243
rwrist 2.37515
rhand -42.9311 -22.9347
rfingers 7.12502
rthumb -15.792 -52.3105
lclavicle 1.09332e-015 7.67806e-015
lhumerus -37.6345 -8.70185 84.1845
lradius 41.7639
lwrist -13.4007
lhand -35.8418 18.5807
lfingers 7.12502
lthumb -8.95719 48.3705
rfemur -50.3274 -9.91446 20.5795
rtibia 74.3837
rfoot 7.15675 -16.3668
rtoes -4.92352
lfemur -57.1669 4.51479 -15.5239
ltibia 76.4393
lfoot -34.9832 -10.354
ltoes -14.0917
109
root 8.06929 15.4882 2.16906 -161.504 -5.45648 178.239
lowerback 31.3535 0.976464 -2.65651
upperback 3.58079 -0.684684 0.0605599
thorax -12.326 -0.616871 1.85842
lowerneck -16.869 -5.79171 -14.3533
upperneck 0.312112 -6.89631 20.4734
head 4.19921 -2.89192 8.27331
rclavicle -3.67752e-015 1.54058e-015
rhumerus -42.25 -10.2286 -91.9243
rradius 61.7596
rwrist 1.57666
rhand -42.5535 -22.4505
rfingers 7.12502
rthumb -15.4284 -51.8547
lclavicle -3.67752e-015 1.54058e-015
lhumerus -36.9212 -10.5896 84.4558
lradius 45.6758
lwrist -11.0777
lhand -35.8716 18.4659
lfingers 7.12502
lthumb -8.98592 48.2545
rfemur -48.9986 -9.76836 20.4655
rtibia 73.7401
rfoot 7.69112 -16.2144
rtoes -4.74664
lfemur -56.0112 4.33574 -15.4159
ltibia 76.0002
lfoot -35.1976 -10.5205
ltoes -14.1462
110
root 8.07681 15.5176 2.02363 -161.763 -5.70078 178.114
lowerback 31.0429 0.88343 -2.8952
upperback 3.4274 -0.829522 0.0886131
thorax -12.3573 -0.651266 2.0697
lowerneck -17.0369 -5.8566 -14.3565
upperneck 0.469048 -7.00565 20.5887
head 4.2998 -2.9313 8.30003
rclavicle 5.1684e-015 1.20265e-014
rhumerus -40.6439 -8.32899 -92.7854
rradius 65.7826
rwrist 1.46631
rhand -42.3072 -21.603
rfingers 7.12502
rthumb -15.1911 -51.0254
lclavicle 5.1684e-015 1.20265e-014
lhumerus -36.1124 -12.485 84.4576
lradius 49.9476
lwrist -8.46405
lhand -35.9545 18.3155
lfingers 7.12502
lthumb -9.06587 48.1007
rfemur -47.5534 -9.71847 20.3209
rtibia 72.9433
rfoot 8.16753 -16.0639
rtoes -4.64941
lfemur -54.7681 4.19367 -15.3883
ltibia 75.4277
lfoot -35.3804 -10.7602
ltoes -14.358
111
root 8.07823 15.5565 1.86948 -162.033 -5.92643 178.062
lowerback 30.5243 0.763399 -3.00394
upperback 3.34405 -0.964003 0.088536
thorax -12.22 -0.693173 2.17273
lowerneck -17.2641 -5.92556 -14.4483
upperneck 0.678693 -7.12021 20.8383
head 4.4385 -2.96542 8.38839
rclavicle -8.44835e-015 -3.37934e-015
rhumerus -38.9181 -6.01873 -93.615
rradius 69.995
rwrist 1.0482
rhand -41.9305 -20.6005
rfingers 7.12502
rthumb -14.8282 -50.0499
lclavicle -8.44835e-015 -3.37934e-015
lhumerus -35.1143 -14.3751 84.0994
lradius 54.446
lwrist -6.23632
lhand -36.0284 17.638
lfingers 7.12502
lthumb -9.13724 47.42
rfemur -45.9861 -9.7307 20.23
rtibia 72.0063
rfoot 8.56506 -15.9729
rtoes -4.54159
lfemur -53.4608 4.04732 -15.3518
ltibia 74.794
lfoot -35.6517 -10.6283
ltoes -14.3188
112
root 8.0791 15.6042 1.70146 -162.279 -6.12513 177.936
lowerback 29.8771 0.630609 -3.14942
upperback 3.54508 -1.10841 -0.0283462
thorax -12.4901 -0.712922 2.31327
lowerneck -17.1833 -5.95623 -14.3547
upperneck 0.813122 -7.19596 20.7723
head 4.4718 -3.00111 8.34106
rclavicle 2.75317e-014 2.68359e-015
rhumerus -37.2577 -3.58715 -94.1367
rradius 74.2843
rwrist 0.740412
rhand -41.6986 -20.2469
rfingers 7.12502
rthumb -14.6048 -49.7126
lclavicle 2.75317e-014 2.68359e-015
lhumerus -34.1836 -16.0025 83.3773
lradius 59.1615
lwrist -4.7827
lhand -36.0411 17.4132
lfingers 7.12502
lthumb -9.14944 47.1947
rfemur -44.2994 -9.76154 20.0564
rtibia 70.9019
rfoot 8.91649 -15.8335
rtoes -4.32875
lfemur -51.9515 3.85017 -15.3548
ltibia 73.9329
lfoot -35.938 -10.6719
ltoes -14.6052
113
root 8.08105 15.6499 1.54453 -162.446 -6.31285 177.919
lowerback 29.3 0.526642 -3.21894
upperback 3.28674 -1.18258 -0.0477593
thorax -12.4893 -0.713818 2.34649
lowerneck -16.9918 -6.02464 -14.4714
upperneck 0.850683 -7.31339 20.9791
head 4.49081 -3.06029 8.42082
rclavicle 1.67973e-014 1.43125e-014
rhumerus -35.5517 -1.05546 -94.4932
rradius 78.6762
rwrist -0.016197
rhand -41.3779 -19.6541
rfingers 7.12502
rthumb -14.2958 -49.142
lclavicle 1.67973e-014 1.43125e-014
lhumerus -32.9529 -17.425 82.3668
lradius 63.8973
lwrist -3.74873
lhand -36.0841 16.2741
lfingers 7.12502
lthumb -9.19098 46.0538
rfemur -42.772 -9.74894 20.0102
rtibia 69.7257
rfoot 9.11349 -15.6435
rtoes -4.11159
lfemur -50.5933 3.69775 -15.2454
ltibia 72.997
lfoot -36.161 -10.6862
ltoes -15.0321
114
root 8.07886 15.7168 1.35548 -162.85 -6.62043 177.719
lowerback 28.7221 0.393128 -3.38298
upperback 3.12277 -1.34432 -0.0837668
thorax -12.3683 -0.762033 2.4477
lowerneck -16.8459 -6.10557 -14.7242
upperneck 1.00285 -7.445 21.3274
head 4.56848 -3.11584 8.57341
rclavicle 3.67752e-014 6.26172e-015
rhumerus -33.789 1.3434 -94.4334
rradius 83.1958
rwrist -0.58976
rhand -40.8166 -19.2459
rfingers 7.12502
rthumb -13.7549 -48.7713
lclavicle 3.67752e-014 6.26172e-015
lhumerus -31.4993 -18.6571 81.1308
lradius 68.6784
lwrist -2.97257
lhand -36.3615 15.9378
lfingers 7.12502
lthumb -9.45861 45.7056
rfemur -40.5833 -10.0028 19.7511
rtibia 68.2554
rfoot 9.3062 -15.6168
rtoes -3.92722
lfemur -48.6026 3.3085 -15.2901
ltibia 71.7471
lfoot -36.449 -10.6838
ltoes -15.4469
